<?xml version="1.0" encoding="UTF-8" standalone="no"?>
<!-- Created with Inkscape (http://www.inkscape.org/) -->

<svg
   xmlns:dc="http://purl.org/dc/elements/1.1/"
   xmlns:cc="http://creativecommons.org/ns#"
   xmlns:rdf="http://www.w3.org/1999/02/22-rdf-syntax-ns#"
   xmlns:svg="http://www.w3.org/2000/svg"
   xmlns="http://www.w3.org/2000/svg"
   xmlns:sodipodi="http://sodipodi.sourceforge.net/DTD/sodipodi-0.dtd"
   xmlns:inkscape="http://www.inkscape.org/namespaces/inkscape"
   width="62.373669mm"
   height="137.78429mm"
   viewBox="0 0 221.00906 488.21204"
   id="svg4404"
   version="1.1"
   inkscape:version="0.91 r13725"
   sodipodi:docname="silhouette-maleakimbo.svg"
   inkscape:export-filename="/home/algot/Documents/runeman.org/clipart/silhouette-maleakimbo.png"
   inkscape:export-xdpi="55.303841"
   inkscape:export-ydpi="55.303841">
  <title
     id="title4451">Silhouette-maleakimbo</title>
  <defs
     id="defs4406" />
  <sodipodi:namedview
     id="base"
     pagecolor="#ffffff"
     bordercolor="#666666"
     borderopacity="1.0"
     inkscape:pageopacity="0.0"
     inkscape:pageshadow="2"
     inkscape:zoom="3.1773437"
     inkscape:cx="146.1544"
     inkscape:cy="271.23261"
     inkscape:document-units="px"
     inkscape:current-layer="layer1"
     showgrid="false"
     fit-margin-top="0"
     fit-margin-left="0"
     fit-margin-right="0"
     fit-margin-bottom="0"
     inkscape:window-width="1366"
     inkscape:window-height="712"
     inkscape:window-x="0"
     inkscape:window-y="0"
     inkscape:window-maximized="1" />
  <metadata
     id="metadata4409">
    <rdf:RDF>
      <cc:Work
         rdf:about="">
        <dc:format>image/svg+xml</dc:format>
        <dc:type
           rdf:resource="http://purl.org/dc/dcmitype/StillImage" />
        <dc:title>Silhouette-maleakimbo</dc:title>
        <dc:date>2016-08-26</dc:date>
        <dc:creator>
          <cc:Agent>
            <dc:title>Algot Runeman</dc:title>
          </cc:Agent>
        </dc:creator>
        <dc:rights>
          <cc:Agent>
            <dc:title>Algot Runeman</dc:title>
          </cc:Agent>
        </dc:rights>
        <dc:publisher>
          <cc:Agent>
            <dc:title>runeman.org</dc:title>
          </cc:Agent>
        </dc:publisher>
        <dc:identifier>silhouette-maleakimbo.svg</dc:identifier>
        <cc:license
           rdf:resource="http://creativecommons.org/publicdomain/zero/1.0/" />
      </cc:Work>
      <cc:License
         rdf:about="http://creativecommons.org/publicdomain/zero/1.0/">
        <cc:permits
           rdf:resource="http://creativecommons.org/ns#Reproduction" />
        <cc:permits
           rdf:resource="http://creativecommons.org/ns#Distribution" />
        <cc:permits
           rdf:resource="http://creativecommons.org/ns#DerivativeWorks" />
      </cc:License>
    </rdf:RDF>
  </metadata>
  <g
     inkscape:label="Layer 1"
     inkscape:groupmode="layer"
     id="layer1"
     transform="translate(-299.11571,-305.31407)">
    <g
       id="g4446">
      <path
         id="path4434"
         d="m 424.88281,368.14258 -32.10156,2.51758 -3.77734,6.29492 -3.77735,3.77734 -11.33008,6.92383 -7.55273,5.03516 -7.55273,1.25976 -9.44336,8.8125 -19.51172,23.28906 -12.58985,15.73633 -16.99609,21.40235 -0.62891,6.29492 3.14844,14.47656 5.66406,5.03516 16.9961,14.47851 18.2539,17.625 10.07032,8.18164 1.88867,-3.14648 c 0,0 3.71804,3.94008 5.66571,4.72043 2.36917,0.94923 5.66437,-0.94309 5.66437,-0.94309 l 5.66601,-1.25976 96.93555,7.55273 5.03516,-6.92383 8.18359,-1.88867 5.03515,-8.81055 1.25977,1.25782 4.40625,-14.47657 11.33008,-23.91992 3.14648,-12.58984 -1.88672,-15.73633 -2.51953,-2.51758 -27.69531,-42.80273 -10.70117,-13.84766 -8.8125,-8.18359 -14.47656,-5.03516 -8.1836,-1.25976 z m 35.25,72.38867 10.07031,6.92383 6.92579,19.51172 2.51757,4.40625 0,3.77734 1.25782,6.92383 0,3.77734 -2.51758,3.14649 -2.51758,11.96093 -1.88867,4.40625 -2.51758,8.18165 -11.33008,-1.88868 0.62891,-3.14648 -0.62891,-4.40625 1.88867,-6.92383 0,-5.66602 0,-7.55273 -2.51757,-8.8125 0,-6.29492 1.88867,-8.8125 -1.25977,-8.18164 z m -101.97265,15.73633 5.03711,21.40039 1.88671,5.03515 6.92579,19.51368 5.66406,4.40625 -10.07031,8.18359 -11.96094,-12.58984 -7.55274,-5.66407 -1.25976,-3.14843 -5.66406,-3.77539 0,-4.40625 -5.03711,-5.03711 -3.77539,-5.03516 3.77539,-2.51758 3.77734,-3.77734 11.33008,-6.29492 z"
         style="fill:#000000;fill-rule:evenodd;stroke:#000000;stroke-width:1px;stroke-linecap:butt;stroke-linejoin:miter;stroke-opacity:1"
         inkscape:connector-curvature="0"
         sodipodi:nodetypes="ccccccccccccccccccsccccccccccccccccccccccccccccccccccccccccccccccccccccccccc" />
      <path
         inkscape:connector-curvature="0"
         id="path4442"
         d="m 394.03983,370.97543 -2.51782,-6.60929 -5.03566,1.25891 -1.88837,-4.40619 1.57365,1.57364 3.46201,0.31473 -3.14729,-6.29457 -5.03565,-6.92402 0,-4.4062 -4.4062,-12.58913 4.4062,-10.70076 9.44185,-11.33022 3.77674,-3.14729 10.07131,-1.88837 6.92402,1.88837 9.44185,4.4062 7.55348,12.58913 2.51782,8.18294 2.51783,-0.62946 -1.88837,3.77674 0,10.07131 -5.03565,5.66511 0.62945,6.29456 -5.66511,14.4775 z"
         style="fill:#000000;fill-rule:evenodd;stroke:#000000;stroke-width:1px;stroke-linecap:butt;stroke-linejoin:miter;stroke-opacity:1"
         sodipodi:nodetypes="ccccccccccccccccccccccccc" />
      <path
         inkscape:connector-curvature="0"
         id="path4444"
         d="m 375.15613,527.3954 -3.77673,8.18293 -1.88837,9.44185 0,11.95968 1.25891,8.18293 3.14728,25.17827 1.88837,19.51315 1.88837,16.36588 3.14728,18.25424 -0.62945,8.81239 -1.25892,11.33022 5.03566,50.98598 7.55348,43.43251 1.25891,6.92402 6.29457,1.88837 0.62945,6.29457 1.25892,1.25891 c 0,0 -4.4062,-1.25891 0,5.66511 4.40619,6.92402 10.0713,10.70076 10.0713,10.70076 l 11.33022,1.25891 10.07131,0 2.51782,-3.77674 1.25892,-6.92402 -10.07131,-13.84804 0.62946,-5.03566 -2.51783,0 -0.62946,-19.51315 -7.55348,-35.24957 -6.29456,-33.99066 2.51782,-3.77674 -1.25891,-8.18293 8.18294,-50.35653 6.92402,-25.17826 8.81239,20.77206 10.07131,23.91935 5.03565,18.8837 1.25891,5.66511 3.14729,1.88837 -2.51783,5.03565 3.14728,20.77207 0,18.8837 -3.14728,27.06663 3.14728,6.92403 -5.03565,22.66043 -2.51783,5.66511 0,10.07131 0.62946,2.51783 0,5.66511 16.99533,3.14728 6.92402,-1.25891 25.80772,5.03565 15.73642,-3.14728 5.66511,-2.51783 -4.4062,-5.03565 -19.51315,-5.66511 -6.29457,-9.44185 1.88837,-2.51783 -2.51783,-27.69609 -0.62945,-36.50848 -0.62946,-20.77207 1.88837,-5.66511 -1.88837,-9.44185 2.51783,-21.40152 0,-7.55348 -2.51783,-5.66511 -6.92402,-31.47283 -8.81239,-35.87903 0,-3.77674 -3.14729,-2.51782 3.77674,-20.14262 z"
         style="fill:#000000;fill-rule:evenodd;stroke:#000000;stroke-width:1px;stroke-linecap:butt;stroke-linejoin:miter;stroke-opacity:1" />
    </g>
  </g>
</svg>
